# xmcd
#
# Track frame offsets:
#	150
#	12850
#	34677
#	48075
#	58475
#	70952
#	82965
#	99850
#	115312
#	125975
#
# Disc length: 1820 seconds
#
# Revision: 2
# Processed by: cddbd v1.4PL0 Copyright (c) Steve Scherf et al.
# Submitted via: audiograbber 1.80.04
#
DISCID=83071a0a
DTITLE=Various Artist - Country Gospel Classics
DYEAR=1996
DGENRE=Gospel
TTITLE0=Patsy Cline - Just A Closer Walk With Thee
TTITLE1=Janie Frickie - Amazing Grace
TTITLE2=Willie Nelson - Family Bible
TTITLE3=Chuck Wagon Gang - Shall We Gather At The River
TTITLE4=Conway Twitty - Who Will Pray For Me
TTITLE5=The Jordonaires - The Church In The Wildwood
TTITLE6=Merle Haggard - The Old Rugged Chross
TTITLE7=The Gatlin Brothers - He
TTITLE8=Loretta Lynn - Everybody Wants To Go To Heven
TTITLE9=Kitty Wells - The Great Speckled Bird
EXTD=
EXTT0=
EXTT1=
EXTT2=
EXTT3=
EXTT4=
EXTT5=
EXTT6=
EXTT7=
EXTT8=
EXTT9=
PLAYORDER=
